#!OML:ASF H:\charlestonDancing\Project 1\Capture day 1\Session 1\femaleDancer.ASF
:FULLY-SPECIFIED
:DEGREES
95
root -8.8746 17.625 2.28328 7.84239 -85.8642 6.32039
lowerback 20.4189 -4.00036 1.77536
upperback 4.42781 -5.12654 -0.462154
thorax -6.76375 -2.61028 -0.168517
lowerneck 2.86243 4.82436 4.81453
upperneck -13.8793 5.90376 -6.6898
head -4.24982 2.96802 -3.09009
rclavicle 4.53229e-014 5.56597e-015
rhumerus -36.6356 12.0467 -84.757
rradius 39.7777
rwrist 22.7584
rhand -28.6846 -33.7979
rfingers 7.12502
rthumb -2.04707 -63.7678
lclavicle 4.53229e-014 5.56597e-015
lhumerus -16.0462 -12.2863 80.3372
lradius 56.0852
lwrist -8.84836
lhand -29.11 9.3306
lfingers 7.12502
lthumb -2.45792 39.2962
rfemur -42.9122 -4.74316 25.345
rtibia 49.5385
rfoot -11.0986 -1.8488
rtoes -17.2781
lfemur -20.3898 2.34567 -22.1568
ltibia 49.8395
lfoot -13.0803 -1.83006
ltoes -29.2122
96
root -8.96775 17.5517 2.221 19.6261 -86.0519 -5.91543
lowerback 20.3429 -3.67553 2.28872
upperback 4.45167 -4.5844 -0.228923
thorax -6.70275 -2.35791 -0.354898
lowerneck 2.55267 4.76877 4.73225
upperneck -13.2597 5.85836 -6.53765
head -4.02116 2.94352 -3.00399
rclavicle -3.22031e-014 1.66979e-014
rhumerus -34.5247 11.5087 -85.1416
rradius 39.9923
rwrist 22.6344
rhand -27.8652 -34.4331
rfingers 7.12502
rthumb -1.25575 -64.4092
lclavicle -3.22031e-014 1.66979e-014
lhumerus -19.2649 -11.2446 81.723
lradius 52.1164
lwrist -8.75509
lhand -29.256 10.3141
lfingers 7.12502
lthumb -2.59899 40.278
rfemur -41.1992 -4.44809 26.6891
rtibia 48.2347
rfoot -12.9892 -2.5831
rtoes -12.7312
lfemur -21.9697 2.85057 -20.9459
ltibia 54.0365
lfoot -11.3299 -1.38272
ltoes -29.1307
97
root -9.04788 17.4703 2.17471 26.8862 -86.0004 -13.7444
lowerback 20.5327 -3.37977 2.85358
upperback 4.49465 -4.07298 -0.100506
thorax -6.76749 -2.12245 -0.660016
lowerneck 2.11071 4.62709 4.61766
upperneck -12.5771 5.69352 -6.34289
head -3.76122 2.85686 -2.89219
rclavicle 2.78299e-015 8.34896e-015
rhumerus -32.6864 11.2371 -85.5006
rradius 41.1519
rwrist 22.3337
rhand -28.2226 -34.4239
rfingers 7.12502
rthumb -1.60092 -64.3976
lclavicle 2.78299e-015 8.34896e-015
lhumerus -22.431 -10.0072 82.9227
lradius 48.1584
lwrist -9.05041
lhand -29.4217 11.3254
lfingers 7.12502
lthumb -2.75894 41.2873
rfemur -39.6751 -4.44477 27.5559
rtibia 47.3194
rfoot -15.3874 -3.00759
rtoes -12.1
lfemur -23.8714 3.00873 -20.1127
ltibia 58.7475
lfoot -8.51866 -0.188687
ltoes -27.4126
98
root -9.11152 17.3894 2.13606 31.396 -85.8177 -18.9391
lowerback 21.0386 -3.05847 3.47643
upperback 4.57307 -3.50666 0.0267436
thorax -6.95169 -1.86436 -1.00302
lowerneck 1.48326 4.40724 4.57971
upperneck -11.5623 5.435 -6.13515
head -3.74021 2.69697 -3.05934
rclavicle -2.98177e-015 1.59028e-015
rhumerus -31.0467 10.994 -85.5528
rradius 43.3019
rwrist 22.4052
rhand -27.9034 -34.1263
rfingers 7.12502
rthumb -1.29264 -64.1021
lclavicle -2.98177e-015 1.59028e-015
lhumerus -25.4659 -8.34436 83.8915
lradius 44.2353
lwrist -10.0449
lhand -28.9336 12.485
lfingers 7.12502
lthumb -2.28763 42.4525
rfemur -38.3969 -4.53513 28.169
rtibia 46.8795
rfoot -17.21 -3.47342
rtoes -15.2525
lfemur -26.0834 2.84242 -19.4591
ltibia 63.8708
lfoot -5.05106 1.57933
ltoes -25.0853
99
root -9.17502 17.3164 2.10592 41.1597 -85.8879 -29.9842
lowerback 22.1919 -2.57198 4.21966
upperback 4.88253 -2.6871 0.203471
thorax -7.19611 -1.49619 -1.42061
lowerneck 0.882884 4.18945 4.4629
upperneck -11.1845 5.12442 -6.10908
head -3.51425 2.54045 -2.98483
rclavicle 0 -1.82882e-014
rhumerus -29.4037 10.8814 -85.3558
rradius 46.3465
rwrist 22.7361
rhand -27.8884 -34.5873
rfingers 7.12502
rthumb -1.2781 -64.5632
lclavicle 0 -1.82882e-014
lhumerus -28.4242 -6.03059 84.3884
lradius 40.5546
lwrist -11.7162
lhand -27.851 13.6031
lfingers 7.12502
lthumb -1.24202 43.5792
rfemur -36.6894 -4.56413 29.0352
rtibia 46.7611
rfoot -18.0451 -3.59688
rtoes -16.3833
lfemur -27.7871 2.86985 -18.5289
ltibia 69.1533
lfoot -1.50385 3.19195
ltoes -21.8967
100
root -9.21325 17.2428 2.07539 52.7963 -85.3482 -42.7015
lowerback 23.2606 -2.21684 5.39752
upperback 5.20789 -1.91615 0.557753
thorax -7.36105 -1.16094 -1.90052
lowerneck 0.512741 3.97871 4.28345
upperneck -11.268 4.80899 -6.08179
head -3.49613 2.3816 -2.92557
rclavicle -2.26615e-014 -2.68359e-015
rhumerus -27.6001 10.9969 -84.9468
rradius 50.1291
rwrist 22.9123
rhand -27.8074 -35.7118
rfingers 7.12502
rthumb -1.19991 -65.6881
lclavicle -2.26615e-014 -2.68359e-015
lhumerus -31.5205 -3.21986 84.3241
lradius 37.4202
lwrist -13.933
lhand -26.8938 14.5041
lfingers 7.12502
lthumb -0.317545 44.4836
rfemur -35.4517 -4.73944 30.382
rtibia 46.7867
rfoot -18.2846 -2.95937
rtoes -7.51966
lfemur -30.1659 2.47698 -17.0619
ltibia 74.5732
lfoot 0.660006 3.49882
ltoes -16.1462
101
root -9.23967 17.1771 2.05131 63.8242 -84.1417 -54.8495
lowerback 24.3741 -1.96308 7.15546
upperback 5.63166 -1.11534 1.07588
thorax -7.40425 -0.824061 -2.55438
lowerneck 0.242358 3.75507 4.1055
upperneck -11.6524 4.45919 -6.10681
head -3.60305 2.20561 -2.89816
rclavicle -4.89507e-015 3.55328e-015
rhumerus -25.595 11.2221 -84.2156
rradius 54.3414
rwrist 22.8901
rhand -28.5948 -37.7117
rfingers 7.12502
rthumb -1.96036 -67.6824
lclavicle -4.89507e-015 3.55328e-015
lhumerus -34.7865 -0.299483 83.7206
lradius 34.8427
lwrist -16.5458
lhand -26.5949 15.2983
lfingers 7.12502
lthumb -0.0288513 45.2781
rfemur -34.0969 -4.90096 32.2026
rtibia 46.7024
rfoot -18.2813 -3.29017
rtoes -16.1984
lfemur -32.717 1.94156 -14.9591
ltibia 79.912
lfoot 0.701583 2.8333
ltoes -17.1236
102
root -9.26209 17.1379 2.04073 70.5377 -83.0112 -62.7476
lowerback 25.6829 -1.71448 8.78492
upperback 6.10636 -0.323331 1.52166
thorax -7.43931 -0.492946 -3.2209
lowerneck -0.138349 3.52325 3.86095
upperneck -12.0402 4.09596 -6.07141
head -3.69285 2.02156 -2.83376
rclavicle 6.21202e-015 9.64106e-015
rhumerus -23.284 11.188 -83.0004
rradius 58.7952
rwrist 24.2875
rhand -28.3945 -38.4058
rfingers 7.12502
rthumb -1.76693 -68.3782
lclavicle 6.21202e-015 9.64106e-015
lhumerus -38.1227 2.32902 82.7178
lradius 32.4625
lwrist -19.8083
lhand -25.8551 15.5971
lfingers 7.12502
lthumb 0.685727 45.5758
rfemur -32.5284 -5.34002 33.7189
rtibia 46.4034
rfoot -18.5061 -2.89558
rtoes -18.6136
lfemur -35.1598 1.30077 -13.1763
ltibia 84.7912
lfoot 0.0179572 1.81931
ltoes -16.8583
103
root -9.27764 17.1353 2.03583 73.0595 -82.4589 -66.2605
lowerback 27.0281 -1.41417 9.73289
upperback 6.52983 0.387386 1.81655
thorax -7.5247 -0.191897 -3.65389
lowerneck -0.526564 3.28039 3.74566
upperneck -12.4128 3.70362 -6.22107
head -3.77282 1.82454 -2.8558
rclavicle -1.53064e-014 -1.27222e-014
rhumerus -20.5972 10.7557 -81.3594
rradius 63.2369
rwrist 26.6683
rhand -28.3507 -37.3603
rfingers 7.12502
rthumb -1.72466 -67.3331
lclavicle -1.53064e-014 -1.27222e-014
lhumerus -41.608 4.74812 81.3212
lradius 30.5257
lwrist -23.1892
lhand -25.0221 15.2572
lfingers 7.12502
lthumb 1.49021 45.2317
rfemur -31.1137 -6.04839 34.4492
rtibia 45.8245
rfoot -18.5731 -2.10108
rtoes -17.1811
lfemur -37.8372 0.382336 -12.3175
ltibia 88.8858
lfoot -1.17357 0.956531
ltoes -18.4721
104
root -9.28942 17.1676 2.02787 73.1303 -82.4456 -66.9595
lowerback 28.1482 -1.03032 9.96029
upperback 6.87313 1.00893 2.01726
thorax -7.59761 0.0807251 -3.76554
lowerneck -0.756421 3.05103 3.76825
upperneck -12.8713 3.32266 -6.47941
head -3.91145 1.6334 -2.94941
rclavicle -5.1684e-015 -1.23246e-014
rhumerus -17.5478 10.1685 -79.4879
rradius 67.379
rwrist 28.8565
rhand -28.3253 -36.8791
rfingers 7.12502
rthumb -1.70009 -66.8521
lclavicle -5.1684e-015 -1.23246e-014
lhumerus -45.3575 6.65071 79.813
lradius 29.3266
lwrist -25.8736
lhand -24.7571 14.2208
lfingers 7.12502
lthumb 1.74614 44.1934
rfemur -30.023 -6.53502 34.4827
rtibia 45.0053
rfoot -18.2353 -1.14751
rtoes -10.5779
lfemur -40.912 -0.781539 -12.2211
ltibia 92.0737
lfoot -2.60305 0.273194
ltoes -21.5727
105
root -9.30355 17.2268 2.01885 72.3331 -82.6644 -66.5171
lowerback 29.0483 -0.594901 9.85871
upperback 7.17819 1.58603 2.18359
thorax -7.61846 0.341092 -3.7213
lowerneck -1.02861 2.81481 3.73534
upperneck -13.2729 2.94057 -6.64068
head -4.02535 1.44031 -2.99638
rclavicle 1.07344e-014 -1.82882e-014
rhumerus -14.1616 9.31502 -77.446
rradius 71.071
rwrist 30.9039
rhand -29.2923 -37.1851
rfingers 7.12502
rthumb -2.63403 -67.1486
lclavicle 1.07344e-014 -1.82882e-014
lhumerus -48.9566 7.96375 78.3822
lradius 28.1654
lwrist -27.3654
lhand -25.5518 12.2526
lfingers 7.12502
lthumb 0.978634 42.2301
rfemur -29.0496 -6.56086 34.1765
rtibia 43.9783
rfoot -17.7952 -1.10529
rtoes -11.0207
lfemur -44.1164 -2.11746 -12.4102
ltibia 94.3173
lfoot -4.36066 -0.432653
ltoes -23.5605
106
root -9.3189 17.3022 2.01233 70.5808 -82.851 -64.8422
lowerback 29.6241 -0.170691 9.82521
upperback 7.49564 2.1299 2.34857
thorax -7.4684 0.595576 -3.70635
lowerneck -1.27843 2.53057 3.69952
upperneck -14.1258 2.44417 -6.95689
head -3.8453 1.22234 -2.80314
rclavicle 1.11319e-014 1.35174e-014
rhumerus -10.4691 8.12714 -75.2594
rradius 74.1493
rwrist 32.4082
rhand -30.7865 -37.4891
rfingers 7.12502
rthumb -4.07692 -67.4298
lclavicle 1.11319e-014 1.35174e-014
lhumerus -52.055 8.70312 77.126
lradius 26.6468
lwrist -27.8616
lhand -26.3338 10.2942
lfingers 7.12502
lthumb 0.223393 40.2738
rfemur -28.2213 -6.32 33.8117
rtibia 42.7533
rfoot -17.3491 -1.21118
rtoes -9.95424
lfemur -47.4333 -3.70915 -12.5362
ltibia 95.6336
lfoot -5.92267 -1.28095
ltoes -22.3871
